<?xml version="1.0" standalone="no"?>
<!DOCTYPE svg PUBLIC "-//W3C//DTD SVG 20010904//EN"
 "http://www.w3.org/TR/2001/REC-SVG-20010904/DTD/svg10.dtd">
<svg version="1.0" xmlns="http://www.w3.org/2000/svg"
 width="512.000000pt" height="512.000000pt" viewBox="0 0 512.000000 512.000000"
 preserveAspectRatio="xMidYMid meet">

<g transform="translate(0.000000,512.000000) scale(0.100000,-0.100000)"
fill="#000000" stroke="none">
<path d="M995 5090 c-226 -6 -231 -6 -324 -38 -328 -113 -536 -335 -628 -667
l-27 -100 -1 -1725 c0 -1833 -2 -1757 47 -1910 98 -307 362 -547 683 -620 89
-21 103 -21 1850 -18 l1760 3 70 22 c317 102 541 323 640 633 24 77 28 107 37
315 5 132 8 885 5 1770 l-3 1540 -26 96 c-34 124 -82 225 -157 325 -121 163
-278 273 -481 339 -78 25 -104 29 -305 36 -251 9 -2791 8 -3140 -1z"/>
</g>
</svg>
